<svg fill="none" height="27" viewBox="0 0 28 27" width="28" xmlns="http://www.w3.org/2000/svg"><rect fill="#eaecf6" height="26" rx="6.406" width="26.692" x=".838" y=".027"/><path d="m14.4536 14.4815c.1037.0584.2168.1045.3189.1691.0864.0553.0675.1168.0094.1875-.1194.146-.3377.206-.5168.1399-.1964-.0723-.3488-.2705-.4619-.4365-.3095-.4535-.4839-.9622-.7211-1.451-.0927-.1921-.2231-.106-.3409.0138-.3017.2598-.5185.5887-.7604.8992-.1131.1445-.2592.1875-.4006.0538-.1335-.1276-.2058-.3059-.2529-.4796-.2011-.7285-.0707-1.4893.0597-2.2163.0769-.4304.1916-.8546.3409-1.2681.0172-.0492.0377-.09989.0738-.13831.1068-.11067.2922-.02921.3959.04303.1367.09528.2152.23518.1587.40118-.033.0937-.0943.1737-.1477.2582-.1367.2152-.2199.458-.2828.704-.1005.3919-.1508.7931-.2011 1.1927-.0204.1568-.0393.312-.0408.4703 0 .0692.0094.1752.0675.2229.1021.0814.1838-.0538.2263-.1291.1288-.2275.3126-.4196.5105-.5918.0786-.0691.1634-.1368.2624-.1737.1744-.0614.3362.0231.4666.1353.366.3166.5923.8146.7556 1.2557.0817.2229.1446.4658.3221.6271.0471.0446.1021.08.1587.1107z" fill="#bc292d"/><path d="m6.88579 13.2558c-.02828.1137-.04556.2305-.03299.3489.02042.1859.11783.3596.24979.4949.04399.0461.09426.0891.12411.1445.03299.0584.04556.1506-.01885.1798-.07384.0338-.19638.0369-.27336.0154-.03613-.0108-.06912-.0277-.10054-.0446-.06127-.0323-.1194-.0676-.17439-.1091-.10683-.083-.19009-.1922-.24665-.3136-.01885-.0399-.16024-.3981-.14453-.4058-.08169.0385-.13354.103-.19795.163-.21051.1906-.46345.3658-.7211.4903-.10054.0476-.20737.0891-.32048.0891-.11155 0-.22937-.0461-.2875-.1383-.04242-.0676-.05027-.1506-.04713-.229.00786-.1599.05813-.3136.11154-.4642.03614-.1014.07384-.2029.12254-.2997.16653-.3243.44931-.5856.77923-.7501.2435-.1214.51058-.1921.78236-.2182.1194-.0123.24194-.0185.36134-.0154.09426.0031.18695.0292.2168.1276.02513.083.02828.1752.00471.2566-.0487.1645-.08012.332-.13354.4965-.01885.0599-.0377.1199-.05341.1814zm-.40846-.664c-.56714.1783-.99446.4764-1.20812 1.0313.26393.0154 1.06358-.6655 1.20812-1.0313z" fill="#bc292d"/><path d="m19.5801 13.7637c-.022-.0968-.033-.1967-.0378-.2966-.0141-.3612.0849-.7086.2671-1.0206.0236-.0415.0503-.0815.088-.1107.0613-.0461.1367-.0338.2058-.0184.2341.149.1053.4411.0456.6501-.0456.1599-.0802.3243-.1147.4873-.0189.0876-.0362.1798-.0079.2643.0911.269.4415.2644.6457.0415.2529-.2736.1587-.7147.1634-1.0621.0016-.1291.0487-.2782.1744-.3243.1225-.0445.2608.04.3205.1537.0597.1138.0597.246.0581.3735-.0031.4119.0188.83-.011 1.2404-.0063.0876-.0471.1829-.132.2106-.0628.02-.1492.0399-.2293-.0169-.044-.0308-.0943-.1614-.0943-.1614s-.1257.0476-.1838.0861c-.0911.0614-.176.0906-.2859.1075-.176.0262-.3614-.0046-.5153-.0922-.2043-.1153-.3079-.3043-.3566-.5118z" fill="#571d1d"/><path d="m22.4746 13.1993c-.1069-.123-.1995-.2567-.264-.4073-.0377-.0876-.0628-.1891-.0172-.2736.0754-.1399.3157-.186.4587-.2152.2042-.0415.4116-.0476.619-.0476.1634 0 .3362.003.4807.0891.088.0523.1603.1368.1823.2367.011.0492.0062.1076-.0283.1445-.0377.0399-.1006.0461-.1556.0384-.3016-.0461-.6645-.1767-.9473-.0015-.0204.0123-.0424.0292-.0518.0507-.022.0523.0235.106.066.1429.2183.1998.4383.3981.6566.5979.1933.1753.6866.5641.2514.787-.0927.0476-.1995.0599-.3048.0645-.1979.0108-.399 0-.5891-.0491-.2765-.0723-.454-.2291-.6504-.4212-.0833-.1952.1414-.2613.3001-.2152.1005.0292.1885.0907.278.1445.1021.063.2404.1337.3661.1214.0534-.0046.1131-.0399.1084-.0922-.0032-.0323-.0314-.0569-.0566-.0784-.2372-.1859-.498-.3812-.7022-.6163z" fill="#571d1d"/><path d="m15.2645 14.3034c-.0126-.0016-.0236-.0046-.0361-.0077-.1666-.0461-.2938-.186-.3598-.3428-.066-.1567-.077-.3304-.077-.4995.0032-.3105-.0094-.6194.0032-.9299.0015-.043.0047-.0891.022-.1291.0487-.1061.1791-.1368.2843-.1045.1367.0415.2152.1906.2341.3212.0141.0922.0047.1875-.0047.2813-.0189.189-.0409.3812-.0173.5702.0251.1983.1257.3459.2027.5272.0864.1906-.0597.3443-.2514.3136z" fill="#bc292d"/><path d="m15.4392 11.2766c0 .0046 0 .0092.0015.0138.0032.0569-.0062.1169-.0361.1677-.1415.2444-.5218.1153-.5862-.12-.0173-.0661-.0158-.1353-.011-.2045.0031-.0477.0062-.0999.0377-.1369.0676-.0814.2404-.0584.3332-.0338.1493.0385.2483.1646.2609.3137z" fill="#bc292d"/><path d="m18.5773 12.5775c.066.083.1272.1752.1822.2582.0754.1138.1351.2475.1178.3827-.0188.1491-.1256.2752-.2466.3689-.2121.1645-.4446.3013-.685.4227-.2215.1137-.4854.2736-.7399.2966-.0943.0077-.1885-.0076-.2812-.0276-.2514-.0523-.4949-.1783-.5562-.4442-.0173-.0738-.0141-.1507.0047-.2244.0268-.1092.0676-.1353-.0298-.2167-.0896-.0738-.143-.186-.165-.2998-.022-.1137-.0172-.2305-.0078-.3458.0361-.4473.1288-.8915.2733-1.3172.0723-.2137.1587-.4212.2561-.6241.0629-.1275.2404-.6132.4619-.4657.055.0354.1068.0753.1571.1168.0361.0308.0723.0646.0911.1076.0377.0876-.0393.1537-.0895.2137-.066.0799-.1241.169-.1776.2582-.1052.1814-.1838.375-.2466.5733-.0958.3074-.1493.624-.2042.9407-.0158.0906-.0472.2981 0 .2674.0722-.0461.2482-.2229.3173-.272.088-.0615.1775-.1184.2718-.1707.0691-.0384.1398-.0737.2152-.1014.3284-.1184.7195-.0415.9772.1906.0361.0338.0707.0722.1037.1122zm-1.5051 1.2634c.0456-.0061.0692-.0077.0943-.0123.454-.0953.7981-.3689 1.1264-.6655.0911-.083.0503-.1798-.0094-.2674-.1288-.1876-.3928-.2659-.6284-.1676-.3692.1537-.6614.415-.9552.6732-.0283.0246-.0754.0554-.0424.0999.1147.1491.2089.3244.4147.3397z" fill="#571d1d"/><path d="m10.2069 12.5775c.066.083.1273.1752.1823.2582.0754.1138.1351.2475.1178.3827-.0189.1491-.1257.2752-.2467.3689-.2121.1645-.44456.3013-.68493.4227-.22151.1137-.48544.2736-.73995.2966-.09426.0077-.18852-.0076-.28121-.0276-.25136-.0523-.49487-.1783-.55614-.4442-.01728-.0738-.01414-.1507.00471-.2244.02671-.1092.06756-.1353-.02985-.2167-.08954-.0738-.14296-.186-.16495-.2998-.022-.1137-.01728-.2305-.00786-.3458.03613-.4473.12882-.8915.27336-1.3172.07227-.2137.15867-.4212.25607-.6241.06285-.1275.24037-.6132.46188-.4657.05499.0354.10683.0753.15711.1168.03613.0308.07226.0646.09112.1076.0377.0876-.03928.1537-.08955.2137-.06599.0799-.12411.169-.17753.2582-.10526.1814-.18381.375-.24665.5733-.09583.3074-.14924.624-.20423.9407-.01571.0906-.04713.2981 0 .2674.07227-.0461.24822-.2229.31735-.272.08797-.0615.17752-.1184.27178-.1707.06913-.0384.13982-.0737.21523-.1014.32834-.1184.71953-.0415.97714.1906.0362.0338.0707.0722.1037.1122zm-1.50501 1.2634c.04556-.0061.06912-.0077.09426-.0123.45402-.0953.79808-.3689 1.12642-.6655.09113-.083.05027-.1798-.00943-.2674-.12882-.1876-.39275-.2659-.62841-.1676-.36918.1537-.66139.415-.95518.6732-.02827.0246-.0754.0554-.04241.0999.11468.1491.20894.3244.41475.3397z" fill="#bc292d"/><g fill="#5f6165"><path d="m5.04174 15.5214c.0393.0308.05973.0723.05973.1246 0 .02-.00314.0384-.00786.0538-.00471.0154-.01257.0292-.02043.0415-.00943.0123-.01886.0215-.03144.0308-.01257.0092-.02357.0169-.03614.023.02043.0062.03772.0154.055.0246.01572.0092.02987.02.04244.0323s.02043.0277.02672.0446.00943.0384.00943.06c0 .0292-.00629.0553-.01729.0784-.01257.0231-.02829.0415-.05029.0569-.02201.0154-.04873.0277-.08016.0354-.03143.0076-.06444.0123-.10216.0123h-.31434v-.6643h.30334c.06915 0 .12416.0154.16345.0461zm-.09273.2122c.02358-.0154.03458-.0384.03458-.0692 0-.0277-.00943-.0492-.02986-.063-.02043-.0154-.05029-.0231-.08802-.0231h-.17288v.1784h.16188c.0393 0 .07073-.0077.0943-.0231zm.03773.2799c.02357-.0154.03457-.0385.03457-.0692 0-.0277-.011-.0508-.03457-.0661-.02358-.0154-.05816-.0231-.10531-.0231h-.1886v.1814h.19803c.04087 0 .0723-.0077.09588-.023z"/><path d="m6.08069 15.8492c0 .0492-.00629.0923-.02043.1307-.01415.0369-.03301.0692-.05816.0938-.02514.0246-.05658.0431-.09116.0554-.03614.0123-.07544.0184-.12102.0184-.044 0-.0833-.0061-.11944-.0184-.03615-.0123-.06602-.0308-.09116-.0554-.02515-.0246-.04401-.0553-.05816-.0907-.01414-.0369-.02043-.0784-.02043-.1261v-.3829h.11788v.3783c0 .0615.01572.1092.04558.1415s.0723.0492.12731.0492c.05343 0 .09587-.0154.12573-.0462.02986-.0307.04558-.0768.04558-.1384v-.3828h.11788z"/><path d="m6.58165 15.6826c.00472.0092.01258.0184.02515.0261s.02829.0154.05029.0231c.02044.0077.04716.0138.08016.0215.03615.0092.06758.0185.0943.0292.02829.0108.0503.0231.06916.04.01886.0154.03143.0338.04086.0538s.01415.0446.01415.0723c0 .0307-.00629.06-.01729.0846-.01258.0246-.02829.0461-.0503.063-.02043.0169-.04715.0292-.07701.0384-.02986.0093-.06287.0139-.09744.0139-.05187 0-.10216-.0092-.15089-.0262-.04715-.0169-.09273-.0446-.13359-.0799l.0723-.0831c.033.0277.06601.0493.10059.0646.033.0154.07229.0216.11473.0216.03615 0 .06601-.0077.08801-.0231.02201-.0154.03301-.0354.03301-.0615 0-.0123-.00157-.0231-.00629-.0323-.00471-.0092-.01257-.0185-.02357-.0261-.01101-.0077-.02672-.0154-.04715-.0231-.02044-.0062-.04558-.0139-.07702-.0215-.03615-.0077-.06915-.017-.09744-.0277-.02829-.0108-.05187-.0231-.07073-.0385-.01886-.0153-.033-.0338-.04401-.0553-.00943-.0215-.01571-.0477-.01571-.0784 0-.0293.00628-.0554.01729-.08.011-.0231.02672-.0446.04715-.0615s.044-.0308.07229-.04c.0283-.0092.05973-.0138.09273-.0138.0503 0 .09431.0077.13517.0215s.07701.0354.11159.0615l-.06444.0877c-.03143-.0216-.0613-.04-.09273-.0508-.02986-.0123-.06129-.0169-.09273-.0169-.03458 0-.06129.0077-.08173.0231-.01886.0153-.02829.0338-.02829.0569.00315.0169.00472.0276.00943.0369z"/></g><path d="m7.88037 16.1922v-.7257h.0943v.7257z" fill="#bc292d"/><g fill="#5f6165"><path d="m9.04805 15.8585v.2798h-.11787v-.6643h.11787v.2768h.32534v-.2768h.11788v.6643h-.11788v-.2798z"/><path d="m10.5521 15.9378c-.0173.0415-.0424.0784-.0739.1092-.0314.0308-.0691.0554-.1131.0738-.044.0185-.0912.0277-.1431.0277-.0518 0-.1006-.0092-.143-.0277-.044-.0184-.08014-.043-.11158-.0738-.03143-.0308-.055-.0677-.07229-.1092s-.02672-.0861-.02672-.1322c0-.0477.00943-.0907.02672-.1323.01729-.0415.04243-.0784.07387-.1091.0314-.0308.0692-.0569.1132-.0738.044-.0185.0911-.0277.143-.0277.0518 0 .1006.0092.143.0261.044.0185.0802.0431.1116.0738.0314.0308.055.0677.0723.1092s.0267.0861.0267.1322c0 .0477-.0094.0923-.0267.1338zm-.1163-.2229c-.011-.0293-.0267-.0539-.0472-.0754-.0204-.0215-.0455-.0384-.0738-.0507s-.0598-.0185-.0928-.0185-.0644.0062-.0927.0185-.0519.0292-.0723.0507-.0361.0461-.0471.0754c-.01104.0292-.01733.0599-.01733.0922s.00629.0631.01733.0907c.011.0293.0267.0539.0471.0754s.044.0384.0739.0507c.0283.0123.0597.0185.0927.0185s.0644-.0062.0927-.0185.0519-.0292.0723-.0507c.0205-.0215.0362-.0461.0472-.0754.011-.0292.0173-.0599.0173-.0907 0-.0323-.0047-.063-.0173-.0922z"/><path d="m11.2074 16.1383h-.121v-.5566h-.2153v-.1077h.5517v.1077h-.2154z"/><path d="m12.2857 15.5786h-.3835v.1707h.341v.1061h-.341v.1768h.3882v.1061h-.5077v-.6643h.503z"/><path d="m12.6643 15.474h.1179v.5597h.3568v.1061h-.4747z"/><path d="m13.6039 15.6826c.0047.0092.0125.0184.0251.0261s.0283.0154.0503.0231c.0204.0077.0472.0138.0802.0215.0361.0092.0675.0185.0943.0292.0283.0108.0503.0231.0691.04.0189.0154.0315.0338.0409.0538s.0141.0446.0141.0723c0 .0307-.0063.06-.0173.0846s-.0282.0461-.0503.063c-.0204.0169-.0471.0292-.077.0384-.0298.0093-.0628.0139-.0974.0139-.0519 0-.1022-.0092-.1509-.0262-.0471-.0169-.0927-.0446-.1336-.0799l.0723-.0831c.033.0277.066.0493.1006.0646.0346.0154.0723.0216.1147.0216.0362 0 .066-.0077.088-.0231.0221-.0154.0331-.0354.0331-.0615 0-.0123-.0016-.0231-.0063-.0323s-.0126-.0185-.0236-.0261c-.011-.0077-.0267-.0154-.0472-.0231-.0204-.0062-.0455-.0139-.077-.0215-.0361-.0077-.0691-.017-.0974-.0277-.0283-.0108-.0519-.0231-.0707-.0385-.0189-.0153-.033-.0338-.044-.0553-.0095-.0215-.0158-.0477-.0158-.0784 0-.0293.0063-.0554.0173-.08.011-.0231.0267-.0446.0472-.0615.0204-.0169.044-.0308.0723-.04s.0597-.0138.0927-.0138c.0503 0 .0943.0077.1352.0215.0393.0138.077.0354.1116.0615l-.0645.0877c-.0314-.0216-.0613-.04-.0927-.0508-.0299-.0123-.0613-.0169-.0927-.0169-.0346 0-.0613.0077-.0818.0231-.0204.0153-.0283.0338-.0283.0569.0016.0169.0048.0276.0095.0369z"/></g><path d="m14.8999 16.1922v-.7257h.0943v.7257z" fill="#bc292d"/><g fill="#5f6165"><path d="m16.2389 16.1383h-.121v-.5566h-.2153v-.1077h.5516v.1077h-.2153z"/><path d="m17.2479 16.1383-.1682-.2322h-.1493v.2322h-.1179v-.6643h.3033c.0393 0 .0739.0046.1053.0139.0315.0092.0582.023.0802.0415.022.0184.0377.04.0503.0661.011.0261.0173.0554.0173.0877 0 .0276-.0047.0522-.0126.0738-.0079.0215-.0189.0415-.033.0584s-.0314.0307-.0503.0431c-.0189.0123-.0409.0199-.066.0276l.1839.2522zm-.0393-.5305c-.0252-.0184-.0598-.0277-.1038-.0277h-.1744v.2245h.1744c.0425 0 .077-.0107.1022-.0307.0251-.02.0377-.0477.0377-.0815.0016-.0385-.011-.0661-.0361-.0846z"/><path d="m18.3977 16.1392h-.1257l-.0692-.16h-.3206l-.0692.16h-.1226l.2987-.6689h.11zm-.3568-.529-.1163.266h.2342z"/><path d="m18.8713 15.474v.6643h-.1179v-.6643z"/><path d="m19.7599 15.474h.1179v.6643h-.1006l-.3725-.4721v.4721h-.1178v-.6643h.11l.363.4598z"/><path d="m20.3946 15.6826c.0048.0092.0126.0184.0252.0261s.0283.0154.0503.0231c.0204.0077.0471.0138.0801.0215.0362.0092.0676.0185.0943.0292.0283.0108.0503.0231.0692.04.0189.0154.0314.0338.0409.0538.0094.02.0141.0446.0141.0723 0 .0307-.0063.06-.0173.0846-.0125.0246-.0283.0461-.0503.063-.0204.0169-.0471.0292-.077.0384-.0298.0093-.0629.0139-.0974.0139-.0519 0-.1022-.0092-.1509-.0262-.0472-.0169-.0927-.0446-.1336-.0799l.0723-.0831c.033.0277.066.0493.1006.0646.0346.0154.0723.0216.1147.0216.0362 0 .066-.0077.088-.0231s.033-.0354.033-.0615c0-.0123-.0015-.0231-.0063-.0323-.0047-.0092-.0125-.0185-.0235-.0261-.011-.0077-.0267-.0154-.0472-.0231-.0204-.0062-.0456-.0139-.077-.0215-.0361-.0077-.0691-.017-.0974-.0277-.0283-.0108-.0519-.0231-.0708-.0385-.0188-.0153-.033-.0338-.044-.0553-.0094-.0215-.0157-.0477-.0157-.0784 0-.0293.0063-.0554.0173-.08.011-.0231.0267-.0446.0471-.0615.0205-.0169.0441-.0308.0723-.04.0283-.0092.0598-.0138.0928-.0138.0503 0 .0943.0077.1351.0215.0409.0138.0771.0354.1116.0615l-.0644.0877c-.0314-.0216-.0613-.04-.0927-.0508-.0299-.0123-.0613-.0169-.0928-.0169-.0345 0-.0613.0077-.0817.0231-.0204.0153-.0283.0338-.0283.0569.0016.0169.0047.0276.0094.0369z"/></g><path d="m21.6971 16.1227c.1788 0 .3237-.1418.3237-.3168 0-.1749-.1449-.3167-.3237-.3167-.1789 0-.3238.1418-.3238.3167 0 .175.1449.3168.3238.3168z" fill="#e8273d"/><path d="m22.586 16.1227c.1788 0 .3237-.1418.3237-.3168 0-.1749-.1449-.3167-.3237-.3167s-.3238.1418-.3238.3167c0 .175.145.3168.3238.3168z" fill="#c0161c"/><path d="m23.4734 16.1227c.1788 0 .3238-.1418.3238-.3168 0-.1749-.145-.3167-.3238-.3167s-.3237.1418-.3237.3167c0 .175.1449.3168.3237.3168z" fill="#571d1d"/></svg>