<svg fill="none" height="27" viewBox="0 0 27 27" width="27" xmlns="http://www.w3.org/2000/svg"><rect fill="#000" height="26" rx="6.406" width="26" x=".908" y=".602"/><path d="m19.128 18.3881c-6.3129 3.0044-10.23076.4907-12.7387-1.036-.1552-.0962-.41897.0225-.19011.2853.83552 1.0131 3.57371 3.455 7.14781 3.455 3.5766 0 5.7044-1.9516 5.9705-2.292.2644-.3376.0776-.5238-.1895-.4123zm1.773-.9791c-.1695-.2208-1.0309-.2619-1.5729-.1953-.5429.0646-1.3578.3964-1.287.5957.0364.0746.1106.0411.4836.0076.3739-.0373 1.4216-.1695 1.6399.1158.2193.2874-.3342 1.6562-.4353 1.8769-.0976.2208.0374.2777.2208.1307.1809-.147.5085-.5276.7283-1.0662.2183-.5416.3514-1.2971.2225-1.4652z" fill="#f90"/><path clip-rule="evenodd" d="m14.8837 12.2579c0 .7883.0199 1.4457-.3786 2.1458-.3216.5692-.831.9192-1.4002.9192-.7769 0-1.2294-.5919-1.2294-1.4656 0-1.7247 1.5453-2.0377 3.0082-2.0377zm2.0405 4.932c-.1338.1195-.3273.1281-.4781.0484-.6717-.5578-.7912-.8168-1.1612-1.349-1.1099 1.1327-1.8954 1.4713-3.3354 1.4713-1.7019 0-3.02811-1.0501-3.02811-3.1533 0-1.642.89083-2.7605 2.15721-3.3069 1.0986-.4839 2.6325-.5692 3.8051-.703v-.26181c0-.48098.0369-1.05016-.2448-1.46564-.2476-.37283-.72-.52652-1.1356-.52652-.7712 0-1.4599.39557-1.6278 1.21519-.0342.18219-.1679.36149-.3501.37001l-1.96369-.21056c-.16503-.03707-.34716-.17079-.30163-.42412.4525-2.37915 2.60112-3.09637 4.52492-3.09637.9847 0 2.2711.26185 3.0481 1.00751.9847.9192.8907 2.14579.8907 3.48051v3.1533c0 .9477.3928 1.3632.7627 1.8755.1309.1821.1594.4013-.0057.5379-.4126.3443-1.1469.9847-1.551 1.3433l-.0057-.0057" fill="#000" fill-rule="evenodd"/><path d="m19.128 18.3881c-6.3129 3.0044-10.23076.4907-12.7387-1.036-.1552-.0962-.41897.0225-.19011.2853.83552 1.0131 3.57371 3.455 7.14781 3.455 3.5766 0 5.7044-1.9516 5.9705-2.292.2644-.3376.0776-.5238-.1895-.4123zm1.773-.9791c-.1695-.2208-1.0309-.2619-1.5729-.1953-.5429.0646-1.3578.3964-1.287.5957.0364.0746.1106.0411.4836.0076.3739-.0373 1.4216-.1695 1.6399.1158.2193.2874-.3342 1.6562-.4353 1.8769-.0976.2208.0374.2777.2208.1307.1809-.147.5085-.5276.7283-1.0662.2183-.5416.3514-1.2971.2225-1.4652z" fill="#f90"/><path clip-rule="evenodd" d="m14.8837 12.2579c0 .7883.0199 1.4457-.3786 2.1458-.3216.5692-.831.9192-1.4002.9192-.7769 0-1.2294-.5919-1.2294-1.4656 0-1.7247 1.5453-2.0377 3.0082-2.0377zm2.0405 4.932c-.1338.1195-.3273.1281-.4781.0484-.6717-.5578-.7912-.8168-1.1612-1.349-1.1099 1.1327-1.8954 1.4713-3.3354 1.4713-1.7019 0-3.02811-1.0501-3.02811-3.1533 0-1.642.89083-2.7605 2.15721-3.3069 1.0986-.4839 2.6325-.5692 3.8051-.703v-.26181c0-.48098.0369-1.05016-.2448-1.46564-.2476-.37283-.72-.52652-1.1356-.52652-.7712 0-1.4599.39557-1.6278 1.21519-.0342.18219-.1679.36149-.3501.37001l-1.96369-.21056c-.16503-.03707-.34716-.17079-.30163-.42412.4525-2.37915 2.60112-3.09637 4.52492-3.09637.9847 0 2.2711.26185 3.0481 1.00751.9847.9192.8907 2.14579.8907 3.48051v3.1533c0 .9477.3928 1.3632.7627 1.8755.1309.1821.1594.4013-.0057.5379-.4126.3443-1.1469.9847-1.551 1.3433l-.0057-.0057" fill="#fff" fill-rule="evenodd"/></svg>