<svg width="121" height="120" viewBox="0 0 121 120" fill="none" xmlns="http://www.w3.org/2000/svg">
<path d="M96.234 79.1438C104.96 79.1438 112.033 72.0601 112.033 63.3219C112.033 54.5837 104.96 47.5 96.234 47.5C87.5083 47.5 80.4346 54.5837 80.4346 63.3219C80.4346 72.0601 87.5083 79.1438 96.234 79.1438Z" fill="#DCDEEA"/>
<path d="M32.9021 107.505L47.3979 91.0989C47.3979 91.0989 70.4341 82.1092 72.1196 75.3669C74.0524 67.838 64.793 50.5328 64.793 50.5328C64.793 50.5328 87.2673 31.2049 82.5252 28.5754C78.8844 26.5977 43.1728 54.9602 43.1503 53.5668C42.9256 40.5317 36.5204 38.1495 33.1043 37.8348C32.862 37.8101 32.6172 37.842 32.3893 37.928C32.1613 38.0141 31.9565 38.1518 31.7909 38.3305C31.6253 38.5092 31.5035 38.7239 31.435 38.9577C31.3665 39.1914 31.3533 39.438 31.3963 39.6777C32.7759 46.9595 32.5381 54.4554 30.6996 61.6351C28.4522 69.5235 29.7332 73.3666 28.4522 74.76L15.2598 89.9077" fill="#F6F7FB"/>
<path d="M32.9021 107.505L47.3979 91.0989C47.3979 91.0989 70.4341 82.1092 72.1196 75.3669C74.0524 67.838 64.793 50.5328 64.793 50.5328C64.793 50.5328 87.2673 31.2049 82.5252 28.5754C78.8844 26.5977 43.1728 54.9602 43.1503 53.5668C42.9256 40.5317 36.5204 38.1495 33.1043 37.8348C32.862 37.8101 32.6172 37.842 32.3893 37.928C32.1613 38.0141 31.9565 38.1518 31.7909 38.3305C31.6253 38.5092 31.5035 38.7239 31.435 38.9577C31.3665 39.1914 31.3533 39.438 31.3963 39.6777C32.7759 46.9595 32.5381 54.4554 30.6996 61.6351C28.4522 69.5235 29.7332 73.3666 28.4522 74.76L15.2598 89.9077" stroke="#434F5A" stroke-width="1.5" stroke-linecap="round" stroke-linejoin="round"/>
<path d="M64.7478 50.4426C62.5576 49.8262 60.25 49.7538 58.0254 50.2316C55.8008 50.7095 53.7264 51.7231 51.9824 53.1845C46.0268 58.2637 41.7567 70.4897 42.4534 72.5349C42.813 73.5462 44.2063 73.771 45.8469 73.8159C45.8469 73.8159 43.5995 78.8726 48.7236 78.8726C48.7236 78.8726 47.083 80.9177 50.2519 82.3336C53.4208 83.7495 65.7592 78.1085 65.7592 78.1085" stroke="#434F5A" stroke-width="1.5" stroke-linecap="round" stroke-linejoin="round"/>
<path d="M45.8018 73.9737C47.5772 72.5354 53.1059 61.6803 58.4548 60.6465" stroke="#434F5A" stroke-width="1.5" stroke-linecap="round" stroke-linejoin="round"/>
<path d="M48.7236 78.8718C51.3756 77.7031 58.7471 70.5563 61.8486 69.5449" stroke="#434F5A" stroke-width="1.5" stroke-linecap="round" stroke-linejoin="round"/>
<path d="M93.8297 79.8636C103.052 79.8636 110.528 72.3774 110.528 63.1427C110.528 53.9081 103.052 46.4219 93.8297 46.4219C84.6075 46.4219 77.1313 53.9081 77.1313 63.1427C77.1313 72.3774 84.6075 79.8636 93.8297 79.8636Z" stroke="#434F5A" stroke-width="1.5" stroke-linecap="round" stroke-linejoin="round"/>
<path d="M58.9946 27.3163L65.7593 17.6074" stroke="#434F5A" stroke-width="1.5" stroke-linecap="round" stroke-linejoin="round"/>
<path d="M40.9251 29.273L35.3965 21.7441" stroke="#434F5A" stroke-width="1.5" stroke-linecap="round" stroke-linejoin="round"/>
<path d="M51.8929 10.976L51.6457 13.9651C51.6423 14.0754 51.6727 14.1841 51.733 14.2765C51.7933 14.369 51.8805 14.4406 51.9828 14.482L54.7247 15.6282C54.8279 15.6665 54.9169 15.7355 54.9798 15.8259C55.0427 15.9163 55.0763 16.0237 55.0763 16.1338C55.0763 16.244 55.0427 16.3514 54.9798 16.4418C54.9169 16.5322 54.8279 16.6012 54.7247 16.6395L51.848 17.3137C51.7385 17.3379 51.6398 17.397 51.5668 17.4821C51.4938 17.5672 51.4506 17.6738 51.4434 17.7857L51.1962 20.7523C51.1944 20.8657 51.1555 20.9754 51.0852 21.0645C51.015 21.1536 50.9173 21.217 50.8074 21.2452C50.6975 21.2733 50.5814 21.2644 50.4771 21.22C50.3727 21.1757 50.2858 21.0982 50.2298 20.9995L48.6791 18.4374C48.6172 18.3439 48.5276 18.2719 48.4228 18.2316C48.3181 18.1913 48.2034 18.1847 48.0947 18.2127L45.1955 18.887C45.0863 18.9185 44.9698 18.9132 44.8639 18.8718C44.758 18.8304 44.6687 18.7553 44.6099 18.658C44.551 18.5608 44.5258 18.4468 44.5383 18.3338C44.5507 18.2208 44.6 18.115 44.6787 18.0329L46.6339 15.7855C46.6939 15.6915 46.7259 15.5823 46.7259 15.4708C46.7259 15.3593 46.6939 15.2502 46.6339 15.1562L45.0832 12.6166C45.0154 12.5227 44.9812 12.4088 44.9859 12.2932C44.9905 12.1775 45.0339 12.0667 45.109 11.9786C45.1842 11.8905 45.2867 11.8302 45.4002 11.8074C45.5137 11.7845 45.6316 11.8004 45.7349 11.8525L48.4768 12.9987C48.5789 13.0451 48.6933 13.057 48.8027 13.0327C48.9122 13.0083 49.0108 12.9491 49.0836 12.8639L51.0164 10.6164C51.0886 10.5465 51.1797 10.499 51.2784 10.48C51.3772 10.461 51.4793 10.4712 51.5723 10.5094C51.6653 10.5475 51.7452 10.612 51.8021 10.6949C51.8591 10.7778 51.8906 10.8754 51.8929 10.976Z" fill="#DCDEEA"/>
<path d="M85.8511 62.758L91.8517 68.7586L103.066 57.5215" stroke="#434F5A" stroke-width="1.5" stroke-linecap="round" stroke-linejoin="round"/>
<g style="mix-blend-mode:darken">
<path d="M11.2811 71.2786L33.0586 65.1656C34.1524 64.8602 35.3212 64.9802 36.3302 65.5013C37.3391 66.0225 38.1134 66.9062 38.4974 67.9749L49.7346 99.4389C49.9345 99.9952 50.0227 100.585 49.9942 101.176C49.9656 101.766 49.8209 102.345 49.5683 102.88C49.3157 103.414 48.9602 103.893 48.5221 104.29C48.084 104.687 47.5719 104.994 47.0152 105.192L24.7432 113.148C24.177 113.348 23.5764 113.433 22.9769 113.398C22.3774 113.362 21.7911 113.206 21.2527 112.94C20.7143 112.674 20.2346 112.303 19.8421 111.848C19.4496 111.394 19.1521 110.865 18.9673 110.294L8.22459 77.0096C8.03514 76.433 7.96443 75.8239 8.01671 75.2193C8.06899 74.6146 8.24316 74.0268 8.52877 73.4912C8.81439 72.9557 9.20553 72.4836 9.67855 72.1033C10.1516 71.723 10.6967 71.4425 11.2811 71.2786Z" fill="#BBF9C5"/>
</g>
</svg>
