<svg width="50" height="50" viewBox="0 0 50 50" fill="none" xmlns="http://www.w3.org/2000/svg">
<rect width="50" height="50" rx="12" fill="black"/>
<path d="M26.1279 30.8654C26.0454 30.8654 25.9668 30.8457 25.8921 30.8064L17.8256 26.3782C17.6684 26.2918 17.5741 26.1307 17.5741 25.95V11.9071C17.5741 11.6399 17.7902 11.4199 18.0613 11.4199H34.2613C34.5285 11.4199 34.7485 11.636 34.7485 11.9071V25.95C34.7485 26.1268 34.6503 26.2918 34.4932 26.3782L26.3558 30.8064C26.2851 30.8457 26.2026 30.8654 26.124 30.8654H26.1279ZM18.5485 25.6631L26.1279 29.8241L33.778 25.6592V12.3904H18.5485V25.6592V25.6631Z" fill="white"/>
<path d="M26.1633 28.0717C26.0807 28.0717 26.0022 28.052 25.9275 28.0088L20.3717 24.9165C20.2184 24.8301 20.1202 24.669 20.1202 24.4922V16.8578C20.1202 16.5906 20.3363 16.3706 20.6074 16.3706H28.5915V17.345H21.0907V24.2053L26.1593 27.0265L31.2476 24.2053V14.8382H22.4423V13.8638H31.7348C32.002 13.8638 32.2221 14.0799 32.2221 14.351V24.4922C32.2221 24.669 32.1277 24.8301 31.9705 24.9165L26.3951 28.0088C26.3204 28.0481 26.2418 28.0717 26.1593 28.0717H26.1633Z" fill="white"/>
<path d="M26.1711 25.2584C26.0886 25.2584 26.0061 25.2388 25.9314 25.1956L22.8274 23.451C22.6742 23.3646 22.5798 23.2035 22.5798 23.0267V19.9776H23.5543V22.7438L26.1751 24.2172L29.0198 22.6612L29.4873 23.5139L26.4069 25.1995C26.3322 25.2388 26.2536 25.2584 26.1751 25.2584H26.1711Z" fill="white"/>
<path d="M18.026 39.2148C17.0083 39.2148 16.4425 38.5036 16.4425 37.6274C16.4425 36.7512 17.0555 36.0401 18.026 36.0401C18.5525 36.0401 19.02 36.2954 19.3068 36.6923L20.3677 36.0951C19.8687 35.3328 19.0043 34.8299 18.026 34.8299C16.4779 34.8299 15.2245 36.0833 15.2245 37.6274C15.2245 39.1716 16.4779 40.425 18.026 40.425C18.9886 40.425 19.8333 39.9417 20.3402 39.207L19.2754 38.6097C18.9847 38.983 18.5328 39.2188 18.026 39.2188V39.2148Z" fill="white"/>
<path d="M25.8647 36.7198C25.8647 35.6786 25.0003 34.8299 23.9355 34.8299H21.7233V40.425H23.0121V38.6137H23.629L24.6663 40.425H26.0494L24.8706 38.3701C25.46 38.0439 25.8568 37.427 25.8568 36.7198H25.8647ZM23.9355 37.4113H23.016V36.0283H23.9355C24.3244 36.0283 24.6388 36.3387 24.6388 36.7198C24.6388 37.1009 24.3244 37.4113 23.9355 37.4113V37.4113Z" fill="white"/>
<path d="M28.2144 34.8299H27.2832V40.4211H28.2144H28.5799H30.9374V39.2227H28.5799V38.1933H30.6387V36.9988H28.5799V36.0283H30.9374V34.8299H28.5799H28.2144Z" fill="white"/>
<path d="M34.3007 34.8299H32.3047V40.4211H34.3007C35.7899 40.4211 37 39.2109 37 37.7218V37.5292C37 36.0401 35.7899 34.8299 34.3007 34.8299V34.8299ZM35.8016 37.7218C35.8016 38.5508 35.1298 39.2227 34.3007 39.2227H33.5935V36.0283H34.3007C35.1298 36.0283 35.8016 36.7002 35.8016 37.5292V37.7218Z" fill="white"/>
</svg>
