<svg fill="none" height="27" viewBox="0 0 28 27" width="28" xmlns="http://www.w3.org/2000/svg"><rect fill="#ef6923" height="26" rx="6.406" width="26.692" x=".604" y=".027"/><g fill="#fff"><path d="m10.8772 11.1537c-.0006-.1489-.0181-.2959-.052-.441-.0145-.0743-.0353-.1468-.0628-.2174-.0274-.0707-.0609-.1386-.1004-.2035-.0396-.0651-.0845-.1262-.1351-.1837-.0503-.0573-.1055-.11006-.1655-.15804-.0599-.04799-.1237-.09068-.1912-.1279-.0676-.03722-.1378-.06844-.21101-.09367-.07299-.0254-.14778-.0441-.22439-.0568-.07642-.01253-.15357-.01853-.2309-.01817-.89084 0-1.59243.79538-1.59243 2.18748 0 1.1461.57898 2.0392 1.59243 2.0392.07334.0007.14633-.0047.21895-.0159.07226-.0111.14343-.028.21334-.0506.06971-.0226.13691-.0503.20171-.0836.065-.0333.1268-.0716.1853-.1148.0585-.0431.113-.0909.1634-.1428.0505-.0518.0963-.1074.1374-.1667.0413-.0592.0772-.1213.1076-.1862.0308-.0651.0558-.1322.075-.2012.0494-.2033.0729-.4092.0706-.6183zm2.5202-3.13106c-.0409.49535-.0704 1.14258-.0704 2.28866v4.2774c0 1.4786-.3045 2.6863-1.1989 3.4563-.8945.7702-2.0378.9365-3.18834.9365-.49114.0124-.97722-.0305-1.45805-.1282-.48082-.0977-.9439-.2477-1.38886-.4504l.48625-1.8076c.35098.1859.71988.327 1.10672.4237.38701.0967.78018.1459 1.17969.1475 1.15819 0 2.04879-.604 2.04879-2.0248v-.4991h-.0371c-.123.1602-.2637.3038-.4223.4307-.1587.1268-.3307.2333-.516.3198-.18526.0864-.37832.1497-.57934.1903-.20084.0406-.40404.0572-.60923.0499-1.94485 0-3.34042-1.5509-3.34042-3.7241 0-2.48378 1.6406-4.03474 3.57422-4.03474.2137-.01306.42523.00176.63459.04445.20935.04269.40928.11167.59948.20728.1903.09544.364.21381.5212.35511.1572.14147.2923.30059.4051.47771h.0335l.0815-.92931z"/><path d="m16.7336 11.8774c0 1.3087.5681 2.3068 1.6147 2.3068.954 0 1.5587-.9328 1.5587-2.3213 0-1.1316-.449-2.29945-1.5551-2.29945-1.169-.00724-1.6183 1.16425-1.6183 2.31395zm5.7012-.0904c0 2.7949-2.0376 4.0929-4.1421 4.0929-2.2977 0-4.083-1.4752-4.083-3.9771 0-2.502 1.6667-4.07837 4.2018-4.07837 2.4198.01817 4.0233 1.64517 4.0233 3.96257z"/></g></svg>