<?xml version="1.0" encoding="utf-8"?>
<!-- Generator: Adobe Illustrator 19.2.1, SVG Export Plug-In . SVG Version: 6.00 Build 0)  -->
<svg version="1.1" id="layer" xmlns="http://www.w3.org/2000/svg" xmlns:xlink="http://www.w3.org/1999/xlink" x="0px" y="0px"
	 viewBox="0 0 652 652" style="enable-background:new 0 0 652 652;" xml:space="preserve">
<style type="text/css">
	.st0{fill:#7C47E1;}
	.st1{fill:#FFFFFF;}
	.st2{fill:#44CB86;}
</style>
<path class="st0" d="M525,225H117c-53,0-96,43.2-96,96.6S62.9,417,115.9,417h408c53,0,97.1-42.1,97.1-95.4S578,225,525,225z"/>
<path class="st1" d="M521.2,393.3c-39.4,0-71.5-32.3-71.5-72c0-39.7,32.1-72,71.5-72c39.4,0,71.5,32.3,71.5,72
	C592.8,361,560.7,393.3,521.2,393.3z M120.7,370.1c-26.8,0-48.5-21.9-48.5-48.8c0-26.9,21.8-48.8,48.5-48.8
	c26.7,0,48.5,21.9,48.5,48.8C169.2,348.2,147.4,370.1,120.7,370.1z M192.1,321.3c0-39.6-32.1-71.9-71.5-71.9
	c-39.4,0-71.5,32.3-71.5,71.9c0,39.6,32.1,71.9,71.5,71.9c18.7,0,35.8-7.3,48.5-19.2v7.6c0,6.4,5.1,11.5,11.5,11.5
	c6.3,0,11.5-5.2,11.5-11.5v-58c0-0.2,0-0.4,0-0.6C192.1,322.4,192.1,321.9,192.1,321.3z M279,393.3c-39.7,0-72-32.5-72-72.4
	c0-39.9,32.3-72.4,72-72.4c17.8,0,34.9,6.6,48.1,18.5c4.7,4.3,5.1,11.6,0.9,16.4c-4.3,4.8-11.6,5.2-16.3,0.9
	c-9-8.1-20.6-12.6-32.7-12.6c-26.9,0-48.9,22.1-48.9,49.2c0,27.1,21.9,49.2,48.9,49.2c12.1,0,23.7-4.5,32.7-12.6
	c4.7-4.3,12-3.9,16.3,0.9c4.3,4.8,3.9,12.1-0.9,16.4C313.9,386.7,296.9,393.3,279,393.3z M450.7,372.2l-61.9-52.3l61.9-51.2
	c4.9-4.1,5.6-11.3,1.5-16.3c-4-4.9-11.3-5.6-16.2-1.5l-67.1,56v-47.1c0-6.4-5.1-11.5-11.5-11.5c-6.3,0-11.5,5.2-11.5,11.5v121.2
	c0,6.4,5.1,11.5,11.5,11.5c6.3,0,11.5-5.2,11.5-11.5V334l67.1,56c2.1,1.8,4.7,2.7,7.3,2.7c3.3,0,6.6-1.4,8.8-4.2
	C456.3,383.5,455.6,376.3,450.7,372.2z"/>
<path class="st2" d="M521.3,370.4c-26.9,0-48.8-22-48.8-49.1c0-27.1,21.8-49.1,48.8-49.1c26.9,0,48.8,22,48.8,49.1
	C570.1,348.4,548.2,370.4,521.3,370.4z"/>
</svg>
