<svg fill="none" height="120" viewBox="0 0 121 120" width="121" xmlns="http://www.w3.org/2000/svg"><path d="m61 115c9.9411 0 18-8.059 18-18 0-9.9411-8.0589-18-18-18s-18 8.0589-18 18c0 9.941 8.0589 18 18 18z" fill="#bbf9c5"/><g stroke="#434f5a" stroke-linecap="round" stroke-linejoin="round" stroke-width="1.5"><path d="m49.6573 30.5647-15.3274 56.9273c-.1907.7141-.2212 1.4615-.0891 2.1886.132.7272.4234 1.4162.8529 2.0175.4296.6014.9868 1.1004 1.6318 1.4611.6451.3608 1.3619.5745 2.0992.6257l24.2048 2.0226c1.709.1494 3.4154-.3132 4.815-1.3052 1.3996-.9921 2.4012-2.449 2.8262-4.1111l14.923-57.8937c.2231-.8639.2453-1.7675.065-2.6414s-.5583-1.6948-1.1051-2.3999c-.5467-.7052-1.2477-1.2758-2.0491-1.668s-1.6821-.5957-2.5744-.5948h-23.2609c-1.5968-.0006-3.1492.5254-4.4169 1.4964-1.2676.9711-2.1797 2.3331-2.595 3.8749z"/><path d="m34.3071 90.0306 26.5421 2.0901c.6273.1651 1.2822.1972 1.9226.0942.6405-.103 1.2523-.3388 1.7962-.6922.5439-.3535 1.0079-.8168 1.3622-1.3601.3542-.5434.591-1.1548.6949-1.795l16.0691-60.321c.5619-2.1126-1.3934-2.8318-2.8318-2.8318"/><path d="m68.8502 28.9023h-5.8883"/><path d="m42.9597 55.4215c-.5679-3.2235-2.2649-6.1394-4.787-8.2256-1.1123-.9071-2.4768-1.4497-3.9083-1.5543-1.4314-.1045-2.8603.2341-4.0926.97-1.1911 1.5057 3.3263 7.7311 2.4048 20.5639-.6742 9.5965-2.5396 14.3611-.7417 22.6541 0 0 0 4.0229-4.8994 17.7994"/><path d="m80.627 47.4635c.4807-2.1217.6398-4.3036.472-6.4726 0-4.0454 3.1464-7.3266 4.4948-3.3262 2.0815 5.7451 2.0256 12.0474-.1573 17.7547z" fill="#f6f7fb"/><path d="m52.1738 111.945s3.1015-12.2034 7.7537-16.1364"/><g fill="#f6f7fb"><path d="m77.1881 72.2533c.6477-5.376.7982-10.8003.4495-16.2039-.2472-1.9103-4.7421-5.1691-5.5287-9.5066-.899-4.9669 4.2027-3.4836 11.7091 3.843 6.2029 6.0681 1.5282 15.3725-6.6299 21.8675z"/><path d="m72.3109 84.0773c.7153-5.9653.8808-11.9838.4944-17.9794-.4494-3.461-2.7418-6.0681-3.6183-10.9-.9889-5.5287 2.6744-6.7423 12.226 5.3938 5.9781 7.5513 0 16.2489-9.1021 23.4856z"/><path d="m71.0302 89.828c.9479-4.3215 1.2733-8.7564.9664-13.17-.4495-3.461-2.2475-8.6076-2.9666-12.7428-.8541-4.6972 4.0678-5.731 9.7313 5.8657 3.506 7.4165-.0674 13.8891-7.7311 20.0471z"/></g><path d="m55.4773 44.6562-6.2253 13.979h6.2253l-4.4274 14.0465 15.4623-17.8671-6.5175-1.5058 5.4163-7.8435z"/></g><path d="m102.944 59.625-.225 8.5627-5.9109 1.5507 1.8429 8.0458-10.8551 3.6409.8765 8.3604c3.7397 2.0945 6.6739 5.3766 8.338 9.3267l19.1926-26.8567s-5.371-10.2482-13.259-12.6305z" fill="#dcdeea"/><path d="m99.258 57.1758-.2023 8.5627-5.9107 1.5732 1.8429 8.0458-10.8775 3.6408.8764 8.3604s9.8438 5.6635 12.0238 11.754l19.1934-26.8567s-7.26-12.3833-16.946-15.0802z" stroke="#434f5a" stroke-linecap="round" stroke-linejoin="round" stroke-width="1.5"/><path d="m103.078 73.7148-8.0004 11.3271" stroke="#434f5a" stroke-linecap="round" stroke-linejoin="round" stroke-width="1.5"/><path d="m29.2726 38.0256-13.5295.7866-4.2701 9.0122-7.05698-5.9557 22.02478-33.8687 13.0126 11.4619-10.6752 7.9109z" fill="#dcdeea"/><path d="m28.2169 20.6777-8.4278 12.2485" stroke="#434f5a" stroke-linecap="round" stroke-linejoin="round" stroke-width="1.5"/></svg>