<svg fill="none" height="27" viewBox="0 0 27 27" width="27" xmlns="http://www.w3.org/2000/svg"><rect fill="#161928" height="26" rx="6.406" width="26" x=".46" y=".453"/><g clip-rule="evenodd" fill-rule="evenodd"><path d="m7.32901 7.21497h10.61829c.3464 0 .6293.28365.6293.6293v5.05613c-.3472-.0551-.6696-.1217-.9672-.1977v-4.37096c0-.08137-.0674-.1488-.1488-.1488h-9.64489c-.08138 0-.1488.06743-.1488.1488v9.64406c0 .0814.06742.1488.1488.1488h4.48259c.303.3279.634.6518.9936.9672h-5.96289c-.34643 0-.6293-.2836-.6293-.6293v-10.61823c-.00078-.34643.28287-.6293.6293-.6293z" fill="#fff"/><path d="m15.891 17.8625-.0473-.0232c-4.8476-2.346-5.84966-5.7172-6.05658-6.9495-.02945 1.216.80368 5.47 4.96928 8.6428.4526.0744 5.1979-.6238 5.1979-.6238s-.8873-.1736-2.2211-1.2493c-.8951.0775-1.6314.1968-1.7895.2007z" fill="#f48031"/><path d="m19.4734 14.5063c-.186.0038-.372 0-.558-.0132-.0798-.0062-.1604-.0163-.2402-.0256 0 0-.0016 0-.0024-.0015-.2983-.038-.5936-.1062-.8765-.2093-.0163-.0054-.0318-.0108-.048-.017-.0403-.0155-.0791-.0318-.1186-.0481-.0217-.0093-.0442-.0178-.0651-.0279-.0364-.0155-.0713-.0325-.1077-.0496-.0248-.0124-.0489-.024-.0737-.0372-.0325-.0163-.0651-.0341-.0984-.0527-.0263-.0155-.0527-.0294-.079-.0457-.031-.0186-.062-.038-.0915-.0566-.0287-.0178-.055-.0349-.0814-.0542-.0286-.0202-.0573-.0403-.086-.0597-.0271-.0209-.055-.0426-.0829-.0628-.0264-.0217-.0535-.0426-.0798-.0651-.0279-.0232-.0558-.048-.0837-.0713-.0248-.0225-.0496-.0449-.0744-.0682-.0279-.0271-.0566-.055-.0837-.0837-.0233-.024-.0458-.0465-.069-.0705-.0287-.031-.0566-.0636-.0845-.0969-.0209-.0232-.0411-.0457-.0612-.0697-.0318-.0388-.0612-.0791-.0915-.1202-.0162-.0209-.0325-.0403-.048-.0627-.0457-.0628-.0899-.1287-.1325-.1977 0 0-2.3111.8758-4.1726.5859.062.0465.124.0923.1891.138 1.2221.8595 3.1573 1.4492 6.2155 1.1028.4564-.0403.9749-.0976 1.5104-.1751-.1077.0069-.2162.0131-.3247.0155z" fill="#dc6726"/><g fill="#f48031"><path d="m17.522 14.9873c-.7238.048-1.4074.0418-2.0413-.0186-1.4097-.1341-2.5978-.5356-3.5325-1.192-.0674-.048-.1333-.0953-.1953-.1441-.327-.2519-.5975-.5224-.8253-.7967l.0007-.0008s-.6029-.7184-.94856-1.9453c.06816.2504.16586.5883.29526.951-.0015-.0039-.0039-.007-.0062-.0109.0736.2116.1659.4433.2759.6874.0116.0248.0233.0489.0349.076.0039.0054.007.0132.0101.0194.0457.0984.0937.196.1449.2906.761 1.4593 2.2576 3.279 5.2018 4.7042.458-.0155 5.9055-.6851 5.9055-.6851 0-.0007-2.139-.4688-4.3199-1.9351z"/><path d="m21.6062 13.5068c-.8014.024-1.5183.0016-2.16-.0566-2.1242-.1937-3.4332-.7843-4.2361-1.4128-1.154-.9044-1.2656-1.8894-1.2656-1.8894l-3.9316-.1426.0047.0209s-.0039 0-.0047 0c0 0 .0155.2294.1062.5851.0271.1054.0605.2201.1023.3449.1248.372.3255.8207.6409 1.2756.1434.2031.3116.4092.5061.6092.0008.0015.0016.0023.0031.0039.0054.0069.031.0364.0752.079 0 0 .0015.0016.0031.0031.0147.0147.0318.0295.0496.0465.0883.0783.2147.1713.3611.2279.0233.01.0458.0209.0706.0271.0875.0139.1782.0248.2704.0341.9502.0899 1.9887-.0953 2.7474-.2837.6464-.1619 1.0889-.327 1.0997-.3309l.0822-.031.0457.0736c.0419.0667.0853.1302.1294.1907.0093.0139.0186.0256.0287.038l.0178.0232c.0303.0403.0589.0791.0892.1155.0131.0163.0263.0318.0403.0473l.0271.0317c.024.0287.048.0558.0736.0837.0163.0163.0318.0334.0488.0504l.0171.0171c.0271.0279.0542.055.0814.0813.0224.021.0457.0419.0689.0636.0295.0256.0566.048.0837.0713.0256.0217.0504.0418.0768.0612.0271.0225.0534.0419.0806.0612.0271.021.055.0403.0829.0597.0263.0178.0519.0349.0783.0512.031.0193.0596.0372.0899.055.0255.0155.0503.031.0751.0434.0326.017.0651.0349.0969.0527.0209.0101.0426.0209.0651.0318.0411.0193.0752.0372.1101.0519.0155.0062.0627.0263.0627.0263.0403.0163.0783.0318.1155.0473l.0465.0163c.2658.0961.5526.1658.8541.203l.0155.0016c.0542.0077.1069.0132.1581.0178l.0635.0062c.1759.0132.3604.0186.5472.0132.0519-.0016.1061-.0031.1604-.0062.0504-.0023.1015-.0054.1581-.0093v.0015c.0457-.0062.1131-.0131.1953-.0232.069-.0085.1465-.0178.2309-.0295.1233-.0178.2597-.0387.4007-.0651.0023-.0007.0047-.0015.0047-.0015.1751-.0326.3572-.076.5339-.1271.031-.0093.062-.0178.093-.0279.3953-.138.8215-.3178 1.2331-.5565-.3124.0241-.6131.038-.9052.0473z"/></g></g></svg>