<svg fill="none" height="27" viewBox="0 0 27 27" width="27" xmlns="http://www.w3.org/2000/svg"><rect fill="#cf381e" height="26" rx="6.406" width="26" x=".759" y=".602"/><path d="m16.3746 13.5933c-.4921 1.6429.3096 3.2857 2.0042 2.6287-.492 1.1865-1.312 2.957-1.312 4.8007 0 0 0 1.2413.911 1.5516 0 0 1.2756.3103 1.0025-.8214-.2005-.7119-.2551-1.442-.164-2.1722.3096-1.5151.7835-2.9937 1.403-4.4174 0 0 1.9497-4.0707 3.0793-5.96904 0 0 .4736-.96742-.4921-.96742-.2915 0-.5648.14601-.7469.38322l-2.7512 4.91024c-.4194.7667-.82 1.0041-1.1299 1.0041-.6923 0-.5467-1.1135-.4372-1.5153.3096-1.369.8016-2.683 1.4576-3.94278.492-1.07692-.492-1.16811-.492-1.16811-.6196-.16431-1.0932.85801-1.0932.85801l-1.0933 2.22688c-.7106 1.2413-1.4941 2.4278-2.3322 3.5778 0 0-.146.1825-.2552.1096-.1094-.0913-.0548-.2738-.0548-.2738.1823-1.5152.492-3.012.9111-4.49059.0182-.09135.0364-.16424.0364-.25551.0185-.20083-.0364-.40159-.1639-.54776-.1276-.16423-.3096-.2555-.5102-.2555-.4919-.05467-.7289.18261-1.166.71184-.9657 1.18662-2.0955 2.97542-2.6421 3.77862-.0546.0912-.164.073-.164-.0548 0-.3651 1.2756-4.30795 1.2756-4.30795s.1456-.54753-.2915-.73007c0 0-.6741-.41981-1.221.40152l-2.62374 3.5779c-.2004.2738-.30969.1826-.30969.1826v-.2373l.41906-2.33648c.32804-1.78884-.2915-1.88019-.69237-1.95315-.29158 0-.60127.09119-.85646.25558-.81986.40151-1.43939 2.02615-1.43939 2.02615s-.18221.5841.21858.8213c.12764.073.27339.1278.41914.1096.58308-.0366.69245-1.11355 1.11151-1.11355.07291 0 .07291.09135.07291.10965l-1.34836 5.677c-.09111.3285.05464.6752.32803.8578.18221.1096.38261.1278.583.0912.18229-.0546.34623-.1824.45552-.3467l.4919-.7666c.71071-1.2596 2.02262-3.0668 2.15018-3.0668.05457 0 .07299 0 .07299.0547l-.49212 3.3406c-.05473.292.10936.6023.38268.7301.25504.0912.52843.073.76513-.0548.27339-.219.5103-.4929.6743-.8032.2732-.4381 1.5852-1.9897 2.3868-3.4135.0548-.0913.1094 0 .0913.0549-.1639.7483-.2918 2.7379-.3099 3.2308-.0365.9675.7105 1.077.729 1.077.492.0365.9656-.1826 1.2389-.5841" fill="#fff"/></svg>