<svg fill="none" height="27" viewBox="0 0 27 27" width="27" xmlns="http://www.w3.org/2000/svg" xmlns:xlink="http://www.w3.org/1999/xlink"><clipPath id="a"><path d="m2.93311 3.19992h20.8v20.8h-20.8z"/></clipPath><rect fill="#eaecf6" height="26" rx="6.406" width="26" x=".334" y=".602"/><g clip-path="url(#a)"><ellipse cx="13.329" cy="13.609" fill="#eaecf6" rx="10.4" ry="10.4"/><g stroke-width=".045"><path d="m11.9684 4.20181c1.2301-.20453 2.5009-.18749 3.731.05114.6063.10227 1.166.38634 1.6907.68179.5946.34657 1.2009.66474 1.813.97154 1.475.95451 2.6817 2.31808 3.3696 3.92028.3906.88634.6238 1.83514.7229 2.79534.2332 1.2613.105 2.5681-.3206 3.7782-.3381 1.1988-1.1135 2.1988-1.7373 3.2611-.0874.1421-.2099.2671-.3206.3977-.8045.9433-1.7548 1.7955-2.9324 2.2671.0525-.0682.0816-.142.0933-.2216-.1341.0284-.2682.0626-.4023.1024.0758-.0966.1924-.1478.2973-.216.3848-.2443.7521-.5113 1.1019-.8011.0583-.0511.1399-.0796.1632-.1591-.1399.0568-.2274.1875-.3556.267-1.8481 1.3011-4.1625 2.017-6.4477 1.8238-2.3553-.1875-4.59974-1.3011-6.17377-3.0169-1.09017-1.1761-1.88302-2.6135-2.28527-4.1475-.47805-1.7613-.42558-3.659.18072-5.3862.34978-.99991.8628-1.94873 1.55072-2.76688 1.07851-1.31244 2.46016-2.41466 4.05169-3.0794.73451-.18749 1.45741-.40339 2.20951-.52271zm.1166.53975c-1.6732.28976-3.24722 1.06245-4.52394 2.15331-1.36999 1.16473-2.40769 2.69875-2.95569 4.38613-.19821.9602-.40808 1.9375-.39642 2.9204.20987 1.4601.66459 2.9146 1.51574 4.1475.58297.8522 1.35833 1.5738 2.2328 2.1306.04664.0284.09911.0511.14574.0682-.51302-.3523-.95025-.7898-1.39914-1.2159-1.45744-1.4374-2.27361-3.4544-2.26778-5.4713-.01166-1.7272.548-3.4487 1.53906-4.88049.42557-.42612.71123-.96019 1.11931-1.40903 1.34668-1.25562 3.06062-2.11354 4.86202-2.5567 1.9646-.28408 4.0109.03977 5.8006.87496 1.6907.78405 3.1598 2.03968 4.1042 3.61915.7229 1.19311 1.1193 2.56811 1.1543 3.94871.0233-.5057.0699-1.0284-.0816-1.5227-.1866-.7499-.3615-1.517-.7229-2.20443-.6471-1.05677-1.3117-2.13626-2.262-2.96009-.7229-.62497-1.5682-1.1079-2.466-1.45448-.7812-.20454-1.5682-.38635-2.3552-.57952-1.0027-.17613-2.0404-.16477-3.0431.00568zm.2332 1.34085c-1.5274.36362-2.93242 1.13063-4.13335 2.10218-.34396.31817-.67042.66474-.85698 1.09654-.0408.09659-.06412.20454-.12825.29544.01749 0 .04664-.00568.06413-.01136.33229-.44884.68208-.88632 1.10182-1.26131 1.18345-1.07381 2.75753-1.69879 4.35483-1.82946 1.8014-.15908 3.6436.2784 5.171 1.20449.5247.28976 1.0144.63634 1.4341 1.06245.7463.74997 1.2826 1.69882 1.5916 2.69872.3264.9204.5946 1.8977.4664 2.8806-.1691 1.0398-.1924 2.1249-.6297 3.1078-.3731.5625-.717 1.1421-1.1018 1.6931-1.2534 1.3863-2.8624 2.5226-4.7163 2.9658-.1749.017-.3323.1136-.513.0966.1807.0397.344-.0625.5247-.0625 1.7956-.3239 3.4687-1.2274 4.7163-2.5226 1.1659-1.2102 1.9529-2.784 2.1628-4.4373.0058-.6818 0-1.3579 0-2.0397.0233-.3864-.0874-.7614-.1807-1.1363-.4839-1.7897-1.6498-3.36921-3.1597-4.47712-.4431-.31816-.8978-.63065-1.4108-.83519-1.4866-.63065-3.154-.77837-4.7571-.59088zm-2.36693 4.90889c-.71706.8806-1.06102 2.0453-.90944 3.1589.08744.6705.35561 1.3011.71706 1.8693-.04664-.0341-.13992-.108-.18655-.1421-.11077-.0397-.11077.0853-.0583.1421.27983.534.74036.9545 1.23006 1.3124.4256.2273.8278.5001 1.2826.6761.5421.1875 1.1135.3125 1.6906.267.6646-.0626 1.3409-.1762 1.9413-.4772.6238-.2954 1.1485-.767 1.609-1.267.3265-.3238.3615-.8011.6063-1.1704.274-.4488.3265-.9886.3323-1.4999.0117-.5511-.1049-1.0966-.2681-1.6193-.0817-.3636-.2915-.6818-.4956-.9886-.6587-.9033-1.6148-1.62489-2.7341-1.88056-1.7315-.4318-3.667.24999-4.75713 1.61926z" fill="#221e1f" stroke="#221e1f"/><path d="m9.96766 11.061c1.09724-1.37346 3.04534-2.05733 4.78804-1.62421 1.1266.25645 2.0889.98021 2.7519 1.88631.2054.3078.4166.6269.4988.9916.1643.5243.2816 1.0714.2699 1.6242-.0059.5129-.0587 1.0543-.3345 1.5046-.2464.3704-.2816.849-.6102 1.1739-.4635.5015-.9916.9746-1.6195 1.2709-.6043.302-1.285.416-1.9539.4787-.5809.0456-1.1559-.0798-1.7016-.2678-.4577-.1767-.8626-.4503-1.2909-.6782-.4929-.359-.95647-.7806-1.23812-1.3165-.05281-.057-.05281-.1823.05868-.1424.04694.0342.14082.1082.18776.1424-.36379-.5699-.63371-1.2024-.72172-1.8749-.15256-1.117.19363-2.2853.91536-3.1686zm2.14174-1.1626c-.0587.0228-.1233.05129-.1702.09688 1.285-.5357 2.8341-.39892 3.9959.35332.3051.2736.7041.4502.9212.8036.4284.5699.8039 1.191.9858 1.8749.2875 1.6071-.4401 3.3339-1.8014 4.2856-.3638.2791-.798.4501-1.2263.6155-.3169.114-.6689.0969-.9917.1938.2113.0057.4284.1025.6396.0397.3755-.0967.7628-.1822 1.1149-.359.6278-.3704 1.2674-.775 1.6781-1.3848.0646-.1083.1702-.2053.1819-.3362l.0294-.0512c.0058-.0058.0176-.0228.0234-.0343.2465-.3362.2817-.758.3873-1.1511.2464-.8549.1408-1.7838-.2171-2.593-.4635-1.0315-1.3437-1.8693-2.3999-2.32521-.5809-.26215-1.2263-.33053-1.8542-.35903-.4518.0228-.8801.17097-1.2967.33054zm3.192.9175c.3403.2907.6572.5984.933.9404.5222.6439.9212 1.4532.8214 2.2909-.0528.6269-.4166 1.1683-.7569 1.6812-.3051.4445-.6455.8833-1.0855 1.2195-.2171.1709-.4988.2393-.7511.359-.2347.1083-.4518.2508-.7041.3134.3697.0742.7334-.0626 1.0738-.1766.9153-.3477 1.6664-1.0372 2.1299-1.8693.3521-.7182.4284-1.5387.3286-2.3194-.1819-.7067-.5633-1.3507-1.0503-1.9035-.1995-.1938-.4225-.3989-.7158-.4217-.0822-.0284-.1467-.0797-.223-.1139zm-5.70341 3.9722c.40491 1.5786 1.93051 2.8438 3.62041 2.8836-.4343-.1367-.8509-.3134-1.2616-.5015-.4049-.2678-.8625-.473-1.2146-.8206-.534-.5072-1.01512-1.117-1.18528-1.8351-.02347.0912.01174.1824.04107.2736z" fill="#d7df20" stroke="#d7df20"/><path d="m14.8298 17.6702c1.008-.2486 1.9108-.8544 2.4757-1.6778-.0111.1192-.1108.2071-.1717.3055-.3877.5541-.9914.9218-1.584 1.2584-.3323.1606-.6978.2383-1.0523.3262-.1994.0571-.4043-.0311-.6037-.0361.3046-.0882.6369-.0726.936-.1762z" fill="#221e1f" stroke="#221e1f"/></g></g></svg>