<svg fill="none" height="27" viewBox="0 0 27 27" width="27" xmlns="http://www.w3.org/2000/svg"><rect fill="#ee2e24" height="26" rx="6.406" width="26" x=".46" y=".602"/><path d="m19.4284 16.7275c1.7106 0 3.1025-1.401 3.1025-3.1228 0-1.7229-1.3919-3.1229-3.1025-3.1229-1.7109 0-3.1024 1.4-3.1024 3.1229 0 1.7218 1.3915 3.1228 3.1024 3.1228zm0-4.2364c.6096 0 1.1061.4995 1.1061 1.1132s-.4968 1.1126-1.1064 1.1126c-.61 0-1.1058-.4989-1.1058-1.1129 0-.6144.4962-1.1136 1.1058-1.1136zm-11.70508 4.2364c1.71061 0 3.10248-1.401 3.10248-3.1228 0-1.7229-1.39187-3.1229-3.10248-3.1229-1.71027 0-3.10247 1.4-3.10247 3.1229 0 1.7218 1.3922 3.1228 3.10247 3.1228zm0-4.2364c.60996 0 1.10608.4995 1.10608 1.1132s-.49612 1.1126-1.10608 1.1126c-.60962 0-1.10541-.4989-1.10541-1.1129 0-.6144.49613-1.1136 1.10541-1.1136zm5.85088-.0703-.9525-1.8982h-2.2302l2.083 4.1525v1.9549h2.1996v-1.9549l2.0831-4.1525h-2.2312l-.9515 1.8982z" fill="#fff"/></svg>