<svg fill="none" height="27" viewBox="0 0 27 27" width="27" xmlns="http://www.w3.org/2000/svg"><rect fill="#edcd14" height="26" rx="6.406" width="26" x=".185" y=".602"/><path d="m14.3499 10.7066h-2.6876c-.8488 0-1.4853.6365-1.4853 1.4852v4.7387c0 .4951.4244.9194.9194.9194h.0708c.1414 0 .2122-.0707.2122-.2121v-1.4146c0-.778.6365-1.4145 1.4145-1.4145h.4243c.778 0 1.4146.6365 1.4146 1.4145v1.4146c0 .1414.0707.2121.2122.2121.495 0 .9194-.4243.9194-.9194v-4.7387c.0707-.778-.5658-1.4852-1.4145-1.4852z" fill="#fff"/><path d="m13.0068 15.5157c.4951 0 .9195.4244.9195.9195v3.7485c0 .4951-.4244.9194-.9195.9194-.495 0-.9194-.4243-.9194-.9194v-3.7485c0-.4951.4244-.9195.9194-.9195z" fill="#343758"/><g fill="#fff"><path d="m11.0961 9.22129-1.48526-1.48526c.14145-.14145.21218-.35363.21218-.49508 0-.49509-.49509-.91945-.99017-.84872-.49509 0-.84872.42436-.84872.84872 0 .49508.42436.84872.91945.84872.14145 0 .35363-.07073.49508-.14146l1.27304 1.20235h-1.76812c-.21218 0-.42436.21218-.42436.42436s.21218.42436.42436.42436h2.12182c.2122 0 .4243-.21218.4243-.42436 0-.14145-.1414-.35363-.3536-.35363z"/><path d="m14.8435 9.22108 1.4852-1.48526c-.1414-.14145-.2121-.35363-.2121-.49509 0-.49508.4243-.91944.9194-.91944s.9194.42436.9194.91944c0 .49509-.4243.84872-.9194.84872-.1415 0-.3536-.07072-.4951-.14145l-1.2731 1.20235h1.6267c.2122 0 .4244.21218.4244.42436s-.2122.42436-.4244.42436h-2.1218c-.2121 0-.4243-.21218-.4243-.42436.1414-.14145.2829-.35363.4951-.35363z"/><path d="m12.9352 10.2134c.7031 0 1.2731-.50669 1.2731-1.13167s-.57-1.13163-1.2731-1.13163-1.2731.50665-1.2731 1.13163.57 1.13167 1.2731 1.13167z"/></g></svg>