<svg fill="none" height="27" viewBox="0 0 27 27" width="27" xmlns="http://www.w3.org/2000/svg"><rect fill="#c9323e" height="26" rx="6.406" width="26" x=".61" y=".602"/><g fill="#fff"><path d="m11.5249 17.1349c.1344 1.2671-.7103 2.1694-1.74693 2.2845-.53753.0576-1.03666-.1151-1.45901-.4607-.42234-.3455-.63351-.8063-.6911-1.363-.30716.0384-.61432.0576-.90228.096-.26877.0384-.53753.0576-.8063.096-.19197.0384-.24956-.0384-.28796-.2112-.23037-.9599-.47993-1.9006-.6911-2.8796-.19198-.9215-.30716-1.843-.30716-2.7645 0-.3455.05759-.7103.13438-1.0558.09599-.5183.42234-.90229.88308-1.15186.65271-.36475 1.34382-.61432 2.05413-.78709 1.07505-.26877 2.16931-.51833 3.26355-.69111 1.0175-.17278 2.0541-.26876 3.0908-.36475.9983-.07679 1.9965-.13438 2.9948-.13438 1.0751 0 2.1309.07679 3.206.13438.3839.0192.6911.24956.9598.53753.5184.55672.8063 1.22863 1.0367 1.95818.3648 1.1518.5183 2.3612.4415 3.5707-.0384.6335-.1343 1.267-.4031 1.8621-.0384.096-.096.1344-.2112.1536-.5375.0576-1.075.1152-1.6126.1728-.0767.0192-.1727.0192-.2687.0384.2111.6911.1344 1.3438-.3264 1.9005-.3263.4224-.7679.6527-1.2862.7103-1.1135.1344-2.2845-.7295-2.1885-2.2077-1.6318.192-3.2444.384-4.8762.5567zm-6.4503-5.1065c.07679.7103.11518 1.3439.23037 1.9774.19197 1.0366.46074 2.0349.6911 3.0716.0384.2111.13439.2111.30716.1919.36475-.0576.7487-.096 1.11345-.1344.15358-.0191.23037-.0575.24957-.2111.17278-.7487.90228-1.3822 1.65098-1.4398.90227-.0768 1.55497.3071 1.99657 1.075.0576.096.096.1344.2111.1152.384-.0384.7679-.0768 1.1519-.1344.5951-.0768 1.171-.1344 1.7661-.2111.6336-.0768 1.2671-.1536 1.9198-.2112.1152-.0192.1536-.0576.2112-.1536.6335-1.3246 2.3804-1.5166 3.3019-.3647.0768.0959.1344.1151.2496.1151.5567-.0576 1.0942-.1343 1.651-.1919.1152-.0192.1919-.0576.2111-.1728.096-.4799.2304-.9407.2496-1.4398.0768-1.2287-.096-2.4189-.4799-3.5707-.192-.55677-.4224-1.0751-.8255-1.51664-.2112-.23037-.4416-.42234-.7487-.46074-.7871-.05759-1.5742-.13438-2.3613-.13438-1.2286 0-2.4573.05759-3.6667.13438-.9599.0576-1.9198.17278-2.8604.30716-1.32466.19198-2.64928.46074-3.91631.86389-.55673.17277-1.13265.38395-1.63178.71033-.23037.1536-.40315.3263-.46074.5951-.09599.4031-.15358.8255-.21117 1.1902zm13.2846 6.2968c.8255 0 1.4782-.6527 1.4782-1.459 0-.8255-.6719-1.4782-1.4974-1.4782s-1.459.6527-1.459 1.4782c0 .8063.6527 1.459 1.4782 1.459zm-7.295-.8255c0-.7871-.5183-1.459-1.36302-1.5166-.80629-.0576-1.53579.5759-1.57419 1.363-.03839.8447.57592 1.5358 1.40141 1.5934.8063.0576 1.5358-.6143 1.5358-1.4398z"/><path d="m13.6936 10.3182c.6143 0 1.2094-.0575 1.8046.0192.7103.096.7871.8831.5567 1.3055-.096.1535-.288.2495-.4032.3647.0768.0384.1728.0768.2688.1344.3264.2112.4799.5183.384.9599-.0768.4031-.3264.7103-.7295.7679-.6144.0768-1.2479.0576-1.8622.0768-.0192-1.2671-.0192-2.4573-.0192-3.6284zm.7679 2.9948c.2112 0 .4223.0192.6335 0 .288-.0384.4224-.2111.4224-.5183 0-.3071-.1344-.5375-.4032-.5759-.2112-.0192-.4415 0-.6527 0zm0-2.438v.9982h.4991c.2688 0 .4032-.1727.4224-.4223.0192-.3264-.1344-.5375-.384-.5567-.1919-.0384-.3455-.0192-.5375-.0192z"/><path d="m13.0607 13.8874c-.2496-.0192-.5376.1344-.672-.2303-.0959.0384-.1535.0768-.2303.1151-.5759.3072-1.1903.1152-1.4398-.4799-.2112-.4799-.2112-.9599.0384-1.4206.3071-.5375.8639-.6527 1.4398-.5375.0576.0192.096.0384.1919.0576 0-.2112 0-.384 0-.5568 0-.1727 0-.3455 0-.5375h.672zm-.6911-1.3246c0-.1536 0-.3071 0-.4415 0-.0576-.0192-.1152-.0384-.1536-.2688-.2304-.8831-.2304-.9791.2304-.0384.1727-.0576.3647-.0384.5567.0384.4991.4607.7295.9023.4991.1152-.0576.1919-.1344.1727-.2687-.0383-.1536-.0191-.288-.0191-.4224z"/><path d="m10.3147 12.7594c-.65275 0-1.26707 0-1.86218 0 .01919.3263.24956.5951.59511.5759.30716-.0192.61432-.0768.94068-.1344v.4607c0 .0384-.0384.096-.0576.1152-.55672.2688-1.59338.3072-2.03492-.4415-.26876-.4799-.23037-1.1903.09599-1.6126.34555-.4415.92147-.6143 1.4782-.4415.42234.1343.65272.4607.76792.883.0384.192.0384.3648.0768.5952zm-.71034-.3456c.03839-.2879-.24957-.5951-.55673-.5951-.36475-.0192-.61431.2112-.61431.5951z"/><path d="m18.4539 13.9069c-.0192-.096-.0192-.1728-.0192-.2688-.0959.0576-.1919.096-.2687.1344-.2304.1152-.48.2112-.7487.1536-.3648-.0768-.5951-.288-.6143-.6719-.0192-.6143 0-1.2287 0-1.8622h.6719v.192 1.2478c0 .3648.2111.5376.5759.4608.3072-.0576.4031-.192.4031-.5184 0-.4607 0-.9022 0-1.3822h.672c0 .0576.0192.1344.0192.192v2.1117c0 .1536-.0384.2112-.2112.2112-.1728-.0192-.3264 0-.48 0z"/><path d="m19.6245 13.795c0-.2496 0-.4416 0-.5952.3072.0576.6143.1152.9215.1536.0768.0192.1728 0 .2304-.0384.0767-.0576.1919-.1536.2111-.2303 0-.0768-.096-.2112-.1919-.2304-.192-.0576-.4032-.0768-.5952-.1152-.5375-.1152-.7295-.7679-.3647-1.171.2112-.2496.4799-.3456.8063-.3456.2303 0 .4607.0384.6911.0768.0384 0 .096.0768.096.1152.0192.1728 0 .3263 0 .4991-.2496-.0384-.4992-.0768-.7487-.1152-.0768 0-.1536 0-.2112.0384-.0768.0384-.1728.1344-.1536.192 0 .0576.096.1728.1728.192.1536.0576.3263.0576.4991.096.3264.0576.5567.2111.6527.5375.096.3263-.0576.6911-.3263.9023-.2688.2111-.5951.2303-.9215.1919-.2688-.0384-.5183-.1151-.7679-.1535z"/><path d="m5.84268 11.3768.69111-.0576c0 .0768.0192.1344.0192.2304.09599-.0576.17278-.0768.23037-.1344.21117-.1344.42234-.1728.67191-.1344.05759 0 .11519.0768.11519.1344.01919.2112 0 .4224 0 .5951-.23037-.0192-.46074-.0576-.69111-.0192-.28796.0384-.36475.1536-.36475.4416v1.459c-.21118 0-.40315 0-.59513 0-.03839 0-.09598-.1152-.09598-.1536 0-.6719 0-1.3246 0-1.9965.01919-.1152.01919-.2304.01919-.3648z"/></g></svg>