<svg fill="none" height="120" viewBox="0 0 131 120" width="131" xmlns="http://www.w3.org/2000/svg"><path d="m105.694 71.9609v6.2929c-.003.4593.085.9147.259 1.3399.173.4253.43.812.753 1.1378.324.3259.709.5844 1.133.7609s.879.2674 1.339.2674h13.484v2.7867c-.006.8366-.342 1.6368-.936 2.2263-.594.5894-1.396.9201-2.233.9201h-4.495v12.6531c0 .84-.334 1.646-.928 2.241-.594.594-1.4.928-2.241.928h-43.3974s27.2164-3.5961 25.8679-31.5541z" fill="#dcdeea"/><path d="m4.55953 81.1088 20.60887 13.4845c1.4973.9937 3.2318 1.5715 5.0259 1.6741 1.794.1027 3.5832-.2734 5.184-1.0899 1.6009-.8164 2.9559-2.0438 3.9262-3.5563s1.5211-3.2558 1.5959-5.0512l1.1912-25.4409c.0883-1.7989-.3053-3.5887-1.1402-5.1845s-2.0809-2.9398-3.6091-3.8929-3.2831-1.4808-5.0835-1.5286c-1.8005-.0478-3.581.3861-5.1576 1.2568l-21.80001 11.9562c-1.53918.8353-2.83568 2.0552-3.76311 3.5407-.927439 1.4855-1.4541613 3.186-1.52885467 4.9356-.07469343 1.7496.30519967 3.4887 1.10265467 5.0479.79746 1.5591 1.98527 2.885 3.44765 3.8485z" fill="#bbf9c5"/><g stroke="#434f5a" stroke-linecap="round" stroke-linejoin="round" stroke-width="1.5"><path d="m56.9017 103.583c16.682 0 30.2054-13.5237 30.2054-30.2057s-13.5234-30.2054-30.2054-30.2054-30.2054 13.5234-30.2054 30.2054 13.5234 30.2057 30.2054 30.2057z"/><path d="m56.9023 43.1719h7.2817c8.011 0 15.6938 3.1823 21.3585 8.847 5.6646 5.6646 8.8469 13.3474 8.8469 21.3584s-3.1823 15.6938-8.8469 21.3584c-5.6647 5.6643-13.3475 8.8473-21.3585 8.8473h-7.1917"/><path d="m90.6808 87.7598h21.7322c.692 0 1.355.2746 1.844.7635s.763 1.1521.763 1.8435v10.6082c0 .691-.274 1.354-.763 1.843s-1.152.764-1.844.764h-50.8139"/><path d="m94.2995 71.961h25.7105c.341-.0029.68.0617.996.1903.316.1285.604.3185.846.5588.243.2403.435.5262.566.8412.132.3151.199.653.199.9943v10.6303c0 .3413-.067.6793-.199.9943-.131.3151-.323.601-.566.8413-.242.2403-.53.4301-.846.5587-.316.1285-.655.1932-.996.1902h-29.3288"/><path d="m48.834 61.5977h17.058"/><path d="m48.834 69.1523h17.058"/><path d="m48.8115 61.5977h4.0004c1.9354.0059 3.7898.7773 5.1583 2.1458s2.14 3.2229 2.1459 5.1583c-.0059 1.9353-.7774 3.7897-2.1459 5.1582s-3.2229 2.14-5.1583 2.1459h-2.5845l10.4955 13.08"/></g><path d="m111.11 17.2344c-1.692.7326-3.177 1.8702-4.326 3.3125-1.148 1.4424-1.924 3.1451-2.259 4.9581v15.7319h7.641l-12.5404 15.732-12.5182-15.5073h4.8994v-11.0348s.2023-13.2373 13.2372-13.2373z" fill="#dcdeea"/><g stroke="#434f5a" stroke-linecap="round" stroke-linejoin="round" stroke-width="1.5"><path d="m118.459 17.2354h-13.215c-3.511 0-6.8776 1.3947-9.36 3.8772-2.4825 2.4824-3.8772 5.8494-3.8772 9.3602v11.0348h-4.8994l12.5182 15.5073 12.5404-15.5073h-4.922v-13.1474c0-2.9803 1.184-5.8385 3.292-7.9458 2.107-2.1074 4.965-3.2914 7.946-3.2914 2.98 0 5.838 1.184 7.945 3.2914 2.108 2.1073 3.292 4.9655 3.292 7.9458v9.2369h-14.856v-7.7087s0-6.4276-3.82-7.866"/><path d="m68.4541 27.6662 3.1464-8.5627"/><path d="m49.7101 33.1704.517-4.3825-3.7757-1.326 1.326-4.0903-4.1353-.8091"/><path d="m32.3154 39.4832c1.2908 0 2.3373-1.0464 2.3373-2.3373s-1.0465-2.3373-2.3373-2.3373c-1.2909 0-2.3374 1.0464-2.3374 2.3373s1.0465 2.3373 2.3374 2.3373z"/></g></svg>