<svg fill="none" height="27" viewBox="0 0 28 27" width="28" xmlns="http://www.w3.org/2000/svg"><rect fill="#eaecf6" height="26" rx="6.406" width="26.692" x=".616" y=".027"/><path d="m18.5688 9.53024h-8.75191v1.48116h8.75191z" fill="#000102"/><path d="m17.4842 6.599c-.9765-.34444-2.2784-1.37778-3.291-1.37778s-2.3507.99889-3.3272 1.37778c-.94028.34444-2.24222.41333-2.24222 1.86s1.98902 2.0667 1.98902 2.0667h3.5804 3.5803s1.9891-.62003 1.9891-2.0667-1.302-1.51556-2.2784-1.86z" fill="#000102"/><path d="m14.1914 9.70176c-3.3272 0-4.4121-.62-4.4121-.62 0 2.92774 4.4121 3.03114 4.4121 3.03114s4.4121-.0689 4.4121-3.03114c0 0-1.0849.62-4.4121.62z" fill="#201e1e"/><path d="m14.1914 12.1129s-4.4121-.0689-4.4121-3.03114c0 0 1.0849.62 4.4121.62z" fill="#585959"/><path d="m14.1933 9.80337c-3.508 0-4.41214-.62-4.44831-.65444-.03616-.03445-.07233-.06889-.03616-.10334.03616-.03444.07233-.06888.14466-.03444 0 0 .94031.62 4.33981.62s4.3398-.62 4.3398-.62c.0361-.03444.1085-.03444.1085.03444.0361.03445.0361.10334-.0362.10334 0 .03444-.9403.65444-4.4121.65444z" fill="#25b67e"/><path d="m18.532 9.22046c.0598 0 .1083-.04615.1083-.10307 0-.05693-.0485-.10308-.1083-.10308-.0597 0-.1082.04615-.1082.10308 0 .05692.0485.10307.1082.10307z" fill="#fff"/><path d="m9.85114 9.22046c.05977 0 .10822-.04615.10822-.10307 0-.05693-.04845-.10308-.10822-.10308s-.10822.04615-.10822.10308c0 .05692.04845.10307.10822.10307z" fill="#fff"/><path d="m17.2293 11.7708c-.3617.2412-.7957.4134-1.1573.4823v4.2711c0 .93-.7957 1.6533-1.7359 1.6533h-.1085-.1085c-.9765 0-1.7359-.7578-1.7359-1.6533v-4.2711c-.3255-.0689-.7595-.2067-1.1212-.4823h-1.1934v4.9256c0 2.0322 1.7359 3.6856 3.8696 3.6856h.2894.2893c2.1337 0 3.8696-1.6534 3.8696-3.6856v-4.9256z" fill="#25b67e"/></svg>