<svg fill="none" height="27" viewBox="0 0 27 27" width="27" xmlns="http://www.w3.org/2000/svg"><rect fill="#070707" height="26" rx="6.406" width="26" x=".035" y=".453"/><g fill="#fff"><path d="m8.69285 17.6461h-.07192c-2.15462 0-3.90584-1.7512-3.90584-3.9058v-4.75647h2.12648v4.75647c0 .9819.79743 1.7793 1.77936 1.7793h.07192c.98194 0 1.77935-.7974 1.77935-1.7793v-4.75647h2.1265v4.75647c.0031 2.1515-1.7512 3.9058-3.90585 3.9058z"/><path d="m20.2972 14.7779c-.4096.4034-.9694.6505-1.5886.6505-1.2477 0-2.264-1.0164-2.264-2.2641s1.0163-2.2641 2.264-2.2641c.6161 0 1.1758.2471 1.5824.6474l1.5073-1.498c-.7943-.78802-1.8888-1.27586-3.0928-1.27586-2.4204 0-4.3906 1.97016-4.3906 4.39056s1.9702 4.3906 4.3906 4.3906c1.2102 0 2.3079-.491 3.1022-1.2853z"/></g></svg>