<svg fill="none" height="27" viewBox="0 0 28 27" width="28" xmlns="http://www.w3.org/2000/svg"><rect fill="#6aab3d" height="26" rx="6.406" width="26.692" x=".956" y=".027"/><g fill="#fff"><path d="m7.87012 8.18806h7.32718c.2442 0 .5495-.11895.7327-.29738l1.1601-1.13006h-7.38819c-.79378 0-1.64861.71372-1.83179 1.42744z"/><path d="m8.9104 10.7493h3.6636c.2442 0 .5495-.119.7327-.2974l1.1601-1.13006h-3.7246c-.79379 0-1.64862.71376-1.8318 1.42746z"/><path d="m14.5867 15.9182-3.3583 3.2712c-.3664.3569-.8548.5948-1.40437.5948-1.09908 0-1.95391-.8327-1.95391-1.9033 0-1.0705.85483-1.9032 1.95391-1.9032h4.76267"/><path d="m19.2289 6.76062c-.5496 0-1.0991.23791-1.4655.59477l-8.54831 8.32671c.18318-.0595.36636-.0595.61059-.0595h5.06792l5.7396-5.65024c.3664-.35686.5496-.83268.5496-1.36797.061-1.0111-.8548-1.84377-1.9539-1.84377z"/><path d="m14.7696 16.1561-3.2972 3.2118s-.3053.3568-.4885.3568h10.258c-.1832-2.1411-2.076-3.8065-4.3352-3.8065h-1.4044-.5495z"/></g></svg>