<svg fill="none" height="27" viewBox="0 0 28 27" width="28" xmlns="http://www.w3.org/2000/svg"><rect fill="#e23744" height="26" rx="6.406" width="26.692" x=".486" y=".027"/><g fill="#fff"><path d="m6.35827 11.9721-.01912.5914-1.58238 1.6764c.65973 0 1.08042-.0047 1.31945-.0187-.07171.3167-.12908.5775-.18645.9686-.31551-.0279-.8127-.0326-1.30988-.0326-.55455 0-1.03739.0047-1.42462.0326l.01435-.596 1.58237-1.6671c-.69318 0-.94656.0046-1.23339.0139.06215-.298.10995-.6286.15298-.9592.50674.0093.70753.0186 1.35769.0186.60713 0 .94656-.0093 1.329-.0279zm1.12344 1.8533c0 .3958.13386.5961.36333.5961.30596 0 .54499-.4797.54499-1.0664 0-.4005-.13386-.5961-.35377-.5961-.30596 0-.55455.475-.55455 1.0664zm2.07956-.5169c0 1.0757-.77923 1.9744-1.81662 1.9744-.92744 0-1.4055-.6146-1.4055-1.4202 0-1.0711.7888-1.9651 1.81663-1.9651.94177 0 1.40549.6146 1.40549 1.4109zm12.44393.5169c0 .3958.1338.5961.3633.5961.3059 0 .545-.4797.545-1.0664 0-.4005-.1339-.5961-.3538-.5961-.3059 0-.5545.475-.5545 1.0664zm2.1178-.5355c0 1.0897-.7936 1.9977-1.8406 1.9977-.9417 0-1.4198-.624-1.4198-1.4389 0-1.085.7984-1.9931 1.8405-1.9931.9514 0 1.4199.624 1.4199 1.4343zm-9.2218-.3493c.0813-.5541.0382-1.0524-.5928-1.0524-.4589 0-.9513.3772-1.3003 1.0059.0765-.5216.0334-1.0059-.5928-1.0059-.4685 0-.98.3959-1.329 1.0524.0908-.4284.0717-.9173.043-1.0198-.3633.0606-.6788.0932-1.1234.1025.0143.298-.0048.6892-.06218 1.057l-.1482.9733c-.05737.3818-.11951.8242-.18644 1.1036h1.18082c.0048-.1676.0526-.4331.0813-.6705l.1003-.6706c.0813-.4331.4399-.95.7124-.95.1577 0 .1529.1491.1099.4285l-.1147.7543c-.0574.3819-.1195.8243-.1865 1.1037h1.1952c.0048-.1677.043-.4331.0765-.6706l.1004-.6706c.0812-.433.4398-.9499.7123-.9499.1577 0 .153.1443.129.3353l-.2868 1.9464h1.09zm5.7033 1.3039-.1291.7684c-.196.1024-.5641.2514-.9896.2514-.7219 0-.8701-.3772-.7553-1.1735l.1864-1.2852h-.3585l.1003-.8335.3873-.0187.1482-.6053 1.0995-.4005-.1386 1.0058h.7553c-.0239.1025-.1147.6753-.1386.8522h-.7362l-.1674 1.1875c-.043.3073-.0191.4144.196.4144.1626 0 .3968-.0931.5403-.163z"/><path d="m16.4395 14.6071c.4016-.0465.6741-.4237.741-.7963l.0096-.1024c-.1721-.0373-.4207-.0652-.6597-.0373-.2295.028-.4207.1211-.5211.2562-.0765.0977-.1148.2142-.1004.3492.0239.2049.2581.3632.5306.3306zm-.3442.5961c-.5641.0698-.937-.149-1.0469-.6473-.0717-.312.0287-.6659.196-.8801.2294-.2794.5975-.4564 1.0517-.5122.3633-.0419.6693-.0233.9561.0326l.0144-.0466c.0095-.0745.0143-.1537.0047-.2468-.0286-.2328-.2199-.3772-.6884-.3213-.3155.0372-.6214.149-.8557.2747l-.2295-.6705c.3156-.177.7171-.312 1.1761-.3679.8748-.1071 1.4915.1676 1.568.7916.0191.1677.0239.3446 0 .5029-.1147.773-.1864 1.3551-.2151 1.7463-.0048.0605-.0048.163 0 .312h-1.0852c.0239-.0606.043-.1444.0621-.2468.0144-.0699.0192-.1537.0287-.2608-.2247.3073-.5402.4936-.937.5402z"/></g></svg>